# xmcd CD database file
#
# Track frame offsets:
#	150
#	13463
#	27255
#	40956
#	52597
#	66254
#	80468
#	93019
#	106226
#	119997
#	131493
#	144993
#	159096
#	173446
#	188670
#	201180
#	216072
#	230762
#	246503
#	262137
#	275694
#	290114
#	304761
#	319403
#
# Disc length: 4462 seconds
#
# Revision: 0
# Processed by: cddbd v1.5.2PL0 Copyright (c) Steve Scherf et al.
# Submitted via: CDex 1.51
#
DISCID=64116c18
DTITLE=Louis Armstrong - Disc I. 1923-1931
DYEAR=2007
DGENRE=Jazz
TTITLE0=Chimes Blues
TTITLE1=Froggie Moore
TTITLE2=Copenhagen
TTITLE3=Everybody Loves My Baby (but My Baby Don't Love Nobody but Me)
TTITLE4=Cake Walking Baby from Home
TTITLE5=The St. Louis Blues
TTITLE6=Gut Bucket Blues
TTITLE7=Heebies Jeebies
TTITLE8=Corner Chop Suey
TTITLE9=Muskrat Ramble
TTITLE10=Potato Head Blues
TTITLE11=Twelfth Street Rag
TTITLE12=Fireworks
TTITLE13=West End Blues
TTITLE14=Weather Bird
TTITLE15=St. James Infirmary
TTITLE16=Tight like This
TTITLE17=I Can't Give You Anything but Love
TTITLE18=When You're Smiling (The Whole Wotld Smiles with You)
TTITLE19=St. Louis Blues
TTITLE20=I'm a Ding Dong Daddy (from Dumas)
TTITLE21=Memories of You
TTITLE22=(I'll Be Glad When You're Dead) You Rascal You
TTITLE23=When It's Sleepy Time Down South
EXTD=YEAR: 2007
EXTT0=
EXTT1=
EXTT2=
EXTT3=
EXTT4=
EXTT5=
EXTT6=
EXTT7=
EXTT8=
EXTT9=
EXTT10=
EXTT11=
EXTT12=
EXTT13=
EXTT14=
EXTT15=
EXTT16=
EXTT17=
EXTT18=
EXTT19=
EXTT20=
EXTT21=
EXTT22=
EXTT23=
PLAYORDER=
